<svg width="100" height="100" viewBox="0 0 128 128" fill="none" xmlns="http://www.w3.org/2000/svg">
<g clip-path="url(#clip0_1191_51)" class="barcodePath">
<path d="M4.41361 0L0 0L0 4.41361L4.41361 4.41361L4.41361 0Z" fill="#262728"/>
<path d="M8.82767 0L4.41406 0L4.41406 4.41361L8.82767 4.41361V0Z" fill="#262728"/>
<path d="M13.2417 0L8.82812 0V4.41361L13.2417 4.41361V0Z" fill="#262728"/>
<path d="M17.6558 0L13.2422 0V4.41361L17.6558 4.41361V0Z" fill="#262728"/>
<path d="M22.0679 0L17.6543 0V4.41361L22.0679 4.41361V0Z" fill="#262728"/>
<path d="M26.482 0L22.0684 0V4.41361L26.482 4.41361V0Z" fill="#262728"/>
<path d="M30.896 0L26.4824 0V4.41361L30.896 4.41361V0Z" fill="#262728"/>
<path d="M39.7242 0L35.3105 0V4.41361L39.7242 4.41361V0Z" fill="#262728"/>
<path d="M48.5523 0L44.1387 0V4.41361L48.5523 4.41361V0Z" fill="#262728"/>
<path d="M57.3784 0L52.9648 0V4.41361L57.3784 4.41361V0Z" fill="#262728"/>
<path d="M70.6206 0L66.207 0V4.41361L70.6206 4.41361V0Z" fill="#262728"/>
<path d="M75.0347 0L70.6211 0V4.41361L75.0347 4.41361V0Z" fill="#262728"/>
<path d="M101.517 0L97.1035 0V4.41361L101.517 4.41361V0Z" fill="#262728"/>
<path d="M105.931 0L101.518 0V4.41361L105.931 4.41361V0Z" fill="#262728"/>
<path d="M110.345 0L105.932 0V4.41361L110.345 4.41361V0Z" fill="#262728"/>
<path d="M114.759 0L110.346 0V4.41361L114.759 4.41361V0Z" fill="#262728"/>
<path d="M119.171 0L114.758 0V4.41361L119.171 4.41361V0Z" fill="#262728"/>
<path d="M123.585 0L119.172 0V4.41361L123.585 4.41361V0Z" fill="#262728"/>
<path d="M128 0L123.586 0V4.41361L128 4.41361V0Z" fill="#262728"/>
<path d="M4.41361 4.41357L0 4.41357L0 8.82718H4.41361L4.41361 4.41357Z" fill="#262728"/>
<path d="M30.896 4.41357L26.4824 4.41357V8.82718H30.896V4.41357Z" fill="#262728"/>
<path d="M44.1382 4.41357L39.7246 4.41357V8.82718H44.1382V4.41357Z" fill="#262728"/>
<path d="M48.5523 4.41357L44.1387 4.41357V8.82718H48.5523V4.41357Z" fill="#262728"/>
<path d="M52.9644 4.41357L48.5508 4.41357V8.82718H52.9644V4.41357Z" fill="#262728"/>
<path d="M57.3784 4.41357L52.9648 4.41357V8.82718H57.3784V4.41357Z" fill="#262728"/>
<path d="M61.7925 4.41357L57.3789 4.41357V8.82718H61.7925V4.41357Z" fill="#262728"/>
<path d="M75.0347 4.41357L70.6211 4.41357V8.82718H75.0347V4.41357Z" fill="#262728"/>
<path d="M88.2749 4.41357L83.8613 4.41357V8.82718H88.2749V4.41357Z" fill="#262728"/>
<path d="M101.517 4.41357L97.1035 4.41357V8.82718H101.517V4.41357Z" fill="#262728"/>
<path d="M128 4.41357L123.586 4.41357V8.82718H128V4.41357Z" fill="#262728"/>
<path d="M4.41361 8.82764H0L0 13.2412H4.41361L4.41361 8.82764Z" fill="#262728"/>
<path d="M13.2417 8.82764H8.82812V13.2412H13.2417V8.82764Z" fill="#262728"/>
<path d="M17.6558 8.82764H13.2422V13.2412H17.6558V8.82764Z" fill="#262728"/>
<path d="M22.0679 8.82764H17.6543V13.2412H22.0679V8.82764Z" fill="#262728"/>
<path d="M30.896 8.82764H26.4824V13.2412H30.896V8.82764Z" fill="#262728"/>
<path d="M39.7242 8.82764H35.3105V13.2412H39.7242V8.82764Z" fill="#262728"/>
<path d="M44.1382 8.82764H39.7246V13.2412H44.1382V8.82764Z" fill="#262728"/>
<path d="M48.5523 8.82764H44.1387V13.2412H48.5523V8.82764Z" fill="#262728"/>
<path d="M61.7925 8.82764H57.3789V13.2412H61.7925V8.82764Z" fill="#262728"/>
<path d="M70.6206 8.82764H66.207V13.2412H70.6206V8.82764Z" fill="#262728"/>
<path d="M79.4488 8.82764H75.0352V13.2412H79.4488V8.82764Z" fill="#262728"/>
<path d="M92.689 8.82764H88.2754V13.2412H92.689V8.82764Z" fill="#262728"/>
<path d="M101.517 8.82764H97.1035V13.2412H101.517V8.82764Z" fill="#262728"/>
<path d="M110.345 8.82764H105.932V13.2412H110.345V8.82764Z" fill="#262728"/>
<path d="M114.759 8.82764H110.346V13.2412H114.759V8.82764Z" fill="#262728"/>
<path d="M119.171 8.82764H114.758V13.2412H119.171V8.82764Z" fill="#262728"/>
<path d="M128 8.82764H123.586V13.2412H128V8.82764Z" fill="#262728"/>
<path d="M4.41361 13.2412H0L0 17.6548H4.41361L4.41361 13.2412Z" fill="#262728"/>
<path d="M13.2417 13.2412H8.82812V17.6548H13.2417V13.2412Z" fill="#262728"/>
<path d="M17.6558 13.2412H13.2422V17.6548H17.6558V13.2412Z" fill="#262728"/>
<path d="M22.0679 13.2412H17.6543V17.6548H22.0679V13.2412Z" fill="#262728"/>
<path d="M30.896 13.2412H26.4824V17.6548H30.896V13.2412Z" fill="#262728"/>
<path d="M39.7242 13.2412H35.3105V17.6548H39.7242V13.2412Z" fill="#262728"/>
<path d="M44.1382 13.2412H39.7246V17.6548H44.1382V13.2412Z" fill="#262728"/>
<path d="M48.5523 13.2412H44.1387V17.6548H48.5523V13.2412Z" fill="#262728"/>
<path d="M57.3784 13.2412H52.9648V17.6548H57.3784V13.2412Z" fill="#262728"/>
<path d="M70.6206 13.2412H66.207V17.6548H70.6206V13.2412Z" fill="#262728"/>
<path d="M75.0347 13.2412H70.6211V17.6548H75.0347V13.2412Z" fill="#262728"/>
<path d="M79.4488 13.2412H75.0352V17.6548H79.4488V13.2412Z" fill="#262728"/>
<path d="M101.517 13.2412H97.1035V17.6548H101.517V13.2412Z" fill="#262728"/>
<path d="M110.345 13.2412H105.932V17.6548H110.345V13.2412Z" fill="#262728"/>
<path d="M114.759 13.2412H110.346V17.6548H114.759V13.2412Z" fill="#262728"/>
<path d="M119.171 13.2412H114.758V17.6548H119.171V13.2412Z" fill="#262728"/>
<path d="M128 13.2412H123.586V17.6548H128V13.2412Z" fill="#262728"/>
<path d="M4.41361 17.6553H0L0 22.0689H4.41361L4.41361 17.6553Z" fill="#262728"/>
<path d="M13.2417 17.6553H8.82812V22.0689H13.2417V17.6553Z" fill="#262728"/>
<path d="M17.6558 17.6553H13.2422V22.0689H17.6558V17.6553Z" fill="#262728"/>
<path d="M22.0679 17.6553H17.6543V22.0689H22.0679V17.6553Z" fill="#262728"/>
<path d="M30.896 17.6553H26.4824V22.0689H30.896V17.6553Z" fill="#262728"/>
<path d="M39.7242 17.6553H35.3105V22.0689H39.7242V17.6553Z" fill="#262728"/>
<path d="M52.9644 17.6553H48.5508V22.0689H52.9644V17.6553Z" fill="#262728"/>
<path d="M57.3784 17.6553H52.9648V22.0689H57.3784V17.6553Z" fill="#262728"/>
<path d="M70.6206 17.6553H66.207V22.0689H70.6206V17.6553Z" fill="#262728"/>
<path d="M79.4488 17.6553H75.0352V22.0689H79.4488V17.6553Z" fill="#262728"/>
<path d="M101.517 17.6553H97.1035V22.0689H101.517V17.6553Z" fill="#262728"/>
<path d="M110.345 17.6553H105.932V22.0689H110.345V17.6553Z" fill="#262728"/>
<path d="M114.759 17.6553H110.346V22.0689H114.759V17.6553Z" fill="#262728"/>
<path d="M119.171 17.6553H114.758V22.0689H119.171V17.6553Z" fill="#262728"/>
<path d="M128 17.6553H123.586V22.0689H128V17.6553Z" fill="#262728"/>
<path d="M4.41361 22.0688H0L0 26.4825H4.41361L4.41361 22.0688Z" fill="#262728"/>
<path d="M30.896 22.0688H26.4824V26.4825H30.896V22.0688Z" fill="#262728"/>
<path d="M48.5523 22.0688H44.1387V26.4825H48.5523V22.0688Z" fill="#262728"/>
<path d="M52.9644 22.0688H48.5508V26.4825H52.9644V22.0688Z" fill="#262728"/>
<path d="M66.2066 22.0688H61.793V26.4825H66.2066V22.0688Z" fill="#262728"/>
<path d="M70.6206 22.0688H66.207V26.4825H70.6206V22.0688Z" fill="#262728"/>
<path d="M75.0347 22.0688H70.6211V26.4825H75.0347V22.0688Z" fill="#262728"/>
<path d="M79.4488 22.0688H75.0352V26.4825H79.4488V22.0688Z" fill="#262728"/>
<path d="M83.8628 22.0688H79.4492V26.4825H83.8628V22.0688Z" fill="#262728"/>
<path d="M88.2749 22.0688H83.8613V26.4825H88.2749V22.0688Z" fill="#262728"/>
<path d="M92.689 22.0688H88.2754V26.4825H92.689V22.0688Z" fill="#262728"/>
<path d="M101.517 22.0688H97.1035V26.4825H101.517V22.0688Z" fill="#262728"/>
<path d="M128 22.0688H123.586V26.4825H128V22.0688Z" fill="#262728"/>
<path d="M4.41361 26.4829H0L0 30.8965H4.41361L4.41361 26.4829Z" fill="#262728"/>
<path d="M8.82767 26.4829H4.41406L4.41406 30.8965H8.82767V26.4829Z" fill="#262728"/>
<path d="M13.2417 26.4829H8.82812V30.8965H13.2417V26.4829Z" fill="#262728"/>
<path d="M17.6558 26.4829H13.2422V30.8965H17.6558V26.4829Z" fill="#262728"/>
<path d="M22.0679 26.4829H17.6543V30.8965H22.0679V26.4829Z" fill="#262728"/>
<path d="M26.482 26.4829H22.0684V30.8965H26.482V26.4829Z" fill="#262728"/>
<path d="M30.896 26.4829H26.4824V30.8965H30.896V26.4829Z" fill="#262728"/>
<path d="M39.7242 26.4829H35.3105V30.8965H39.7242V26.4829Z" fill="#262728"/>
<path d="M48.5523 26.4829H44.1387V30.8965H48.5523V26.4829Z" fill="#262728"/>
<path d="M57.3784 26.4829H52.9648V30.8965H57.3784V26.4829Z" fill="#262728"/>
<path d="M66.2066 26.4829H61.793V30.8965H66.2066V26.4829Z" fill="#262728"/>
<path d="M75.0347 26.4829H70.6211V30.8965H75.0347V26.4829Z" fill="#262728"/>
<path d="M83.8628 26.4829H79.4492V30.8965H83.8628V26.4829Z" fill="#262728"/>
<path d="M92.689 26.4829H88.2754V30.8965H92.689V26.4829Z" fill="#262728"/>
<path d="M101.517 26.4829H97.1035V30.8965H101.517V26.4829Z" fill="#262728"/>
<path d="M105.931 26.4829H101.518V30.8965H105.931V26.4829Z" fill="#262728"/>
<path d="M110.345 26.4829H105.932V30.8965H110.345V26.4829Z" fill="#262728"/>
<path d="M114.759 26.4829H110.346V30.8965H114.759V26.4829Z" fill="#262728"/>
<path d="M119.171 26.4829H114.758V30.8965H119.171V26.4829Z" fill="#262728"/>
<path d="M123.585 26.4829H119.172V30.8965H123.585V26.4829Z" fill="#262728"/>
<path d="M128 26.4829H123.586V30.8965H128V26.4829Z" fill="#262728"/>
<path d="M48.5523 30.8965H44.1387V35.3101H48.5523V30.8965Z" fill="#262728"/>
<path d="M57.3804 30.8965H52.9668V35.3101H57.3804V30.8965Z" fill="#262728"/>
<path d="M61.7945 30.8965H57.3809V35.3101H61.7945V30.8965Z" fill="#262728"/>
<path d="M70.6206 30.8965H66.207V35.3101H70.6206V30.8965Z" fill="#262728"/>
<path d="M75.0347 30.8965H70.6211V35.3101H75.0347V30.8965Z" fill="#262728"/>
<path d="M79.4488 30.8965H75.0352V35.3101H79.4488V30.8965Z" fill="#262728"/>
<path d="M88.2769 30.8965H83.8633V35.3101H88.2769V30.8965Z" fill="#262728"/>
<path d="M4.41361 35.3105H0L0 39.7242H4.41361L4.41361 35.3105Z" fill="#262728"/>
<path d="M8.82767 35.3105H4.41406L4.41406 39.7242H8.82767V35.3105Z" fill="#262728"/>
<path d="M13.2417 35.3105H8.82812V39.7242H13.2417V35.3105Z" fill="#262728"/>
<path d="M17.6558 35.3105H13.2422V39.7242H17.6558V35.3105Z" fill="#262728"/>
<path d="M30.896 35.3105H26.4824V39.7242H30.896V35.3105Z" fill="#262728"/>
<path d="M39.7242 35.3105H35.3105V39.7242H39.7242V35.3105Z" fill="#262728"/>
<path d="M48.5523 35.3105H44.1387V39.7242H48.5523V35.3105Z" fill="#262728"/>
<path d="M52.9644 35.3105H48.5508V39.7242H52.9644V35.3105Z" fill="#262728"/>
<path d="M57.3784 35.3105H52.9648V39.7242H57.3784V35.3105Z" fill="#262728"/>
<path d="M79.4488 35.3105H75.0352V39.7242H79.4488V35.3105Z" fill="#262728"/>
<path d="M88.2749 35.3105H83.8613V39.7242H88.2749V35.3105Z" fill="#262728"/>
<path d="M92.689 35.3105H88.2754V39.7242H92.689V35.3105Z" fill="#262728"/>
<path d="M97.1031 35.3105H92.6895V39.7242H97.1031V35.3105Z" fill="#262728"/>
<path d="M110.345 35.3105H105.932V39.7242H110.345V35.3105Z" fill="#262728"/>
<path d="M114.759 35.3105H110.346V39.7242H114.759V35.3105Z" fill="#262728"/>
<path d="M119.171 35.3105H114.758V39.7242H119.171V35.3105Z" fill="#262728"/>
<path d="M128 35.3105H123.586V39.7242H128V35.3105Z" fill="#262728"/>
<path d="M4.41361 39.7241H0L0 44.1377H4.41361L4.41361 39.7241Z" fill="#262728"/>
<path d="M13.2417 39.7241H8.82812V44.1377H13.2417V39.7241Z" fill="#262728"/>
<path d="M22.0679 39.7241H17.6543V44.1377H22.0679V39.7241Z" fill="#262728"/>
<path d="M26.482 39.7241H22.0684V44.1377H26.482V39.7241Z" fill="#262728"/>
<path d="M35.3101 39.7241H30.8965V44.1377H35.3101V39.7241Z" fill="#262728"/>
<path d="M48.5523 39.7241H44.1387V44.1377H48.5523V39.7241Z" fill="#262728"/>
<path d="M57.3784 39.7241H52.9648V44.1377H57.3784V39.7241Z" fill="#262728"/>
<path d="M70.6206 39.7241H66.207V44.1377H70.6206V39.7241Z" fill="#262728"/>
<path d="M110.345 39.7241H105.932V44.1377H110.345V39.7241Z" fill="#262728"/>
<path d="M114.759 39.7241H110.346V44.1377H114.759V39.7241Z" fill="#262728"/>
<path d="M123.585 39.7241H119.172V44.1377H123.585V39.7241Z" fill="#262728"/>
<path d="M8.82767 44.1377H4.41406L4.41406 48.5513H8.82767V44.1377Z" fill="#262728"/>
<path d="M13.2417 44.1377H8.82812V48.5513H13.2417V44.1377Z" fill="#262728"/>
<path d="M26.482 44.1377H22.0684V48.5513H26.482V44.1377Z" fill="#262728"/>
<path d="M30.896 44.1377H26.4824V48.5513H30.896V44.1377Z" fill="#262728"/>
<path d="M35.3101 44.1377H30.8965V48.5513H35.3101V44.1377Z" fill="#262728"/>
<path d="M44.1382 44.1377H39.7246V48.5513H44.1382V44.1377Z" fill="#262728"/>
<path d="M48.5523 44.1377H44.1387V48.5513H48.5523V44.1377Z" fill="#262728"/>
<path d="M52.9663 44.1377H48.5527V48.5513H52.9663V44.1377Z" fill="#262728"/>
<path d="M57.3784 44.1377H52.9648V48.5513H57.3784V44.1377Z" fill="#262728"/>
<path d="M61.7925 44.1377H57.3789V48.5513H61.7925V44.1377Z" fill="#262728"/>
<path d="M66.2066 44.1377H61.793V48.5513H66.2066V44.1377Z" fill="#262728"/>
<path d="M83.8628 44.1377H79.4492V48.5513H83.8628V44.1377Z" fill="#262728"/>
<path d="M88.2769 44.1377H83.8633V48.5513H88.2769V44.1377Z" fill="#262728"/>
<path d="M92.689 44.1377H88.2754V48.5513H92.689V44.1377Z" fill="#262728"/>
<path d="M97.1031 44.1377H92.6895V48.5513H97.1031V44.1377Z" fill="#262728"/>
<path d="M105.931 44.1377H101.518V48.5513H105.931V44.1377Z" fill="#262728"/>
<path d="M110.345 44.1377H105.932V48.5513H110.345V44.1377Z" fill="#262728"/>
<path d="M114.759 44.1377H110.346V48.5513H114.759V44.1377Z" fill="#262728"/>
<path d="M123.585 44.1377H119.172V48.5513H123.585V44.1377Z" fill="#262728"/>
<path d="M13.2417 48.5518H8.82812V52.9654H13.2417V48.5518Z" fill="#262728"/>
<path d="M35.3101 48.5518H30.8965V52.9654H35.3101V48.5518Z" fill="#262728"/>
<path d="M44.1382 48.5518H39.7246V52.9654H44.1382V48.5518Z" fill="#262728"/>
<path d="M48.5523 48.5518H44.1387V52.9654H48.5523V48.5518Z" fill="#262728"/>
<path d="M70.6206 48.5518H66.207V52.9654H70.6206V48.5518Z" fill="#262728"/>
<path d="M79.4488 48.5518H75.0352V52.9654H79.4488V48.5518Z" fill="#262728"/>
<path d="M92.6909 48.5518H88.2773V52.9654H92.6909V48.5518Z" fill="#262728"/>
<path d="M105.931 48.5518H101.518V52.9654H105.931V48.5518Z" fill="#262728"/>
<path d="M114.759 48.5518H110.346V52.9654H114.759V48.5518Z" fill="#262728"/>
<path d="M123.587 48.5518H119.174V52.9654H123.587V48.5518Z" fill="#262728"/>
<path d="M4.41361 52.9653H0L0 57.3789H4.41361L4.41361 52.9653Z" fill="#262728"/>
<path d="M8.82767 52.9653H4.41406L4.41406 57.3789H8.82767V52.9653Z" fill="#262728"/>
<path d="M13.2417 52.9653H8.82812V57.3789H13.2417V52.9653Z" fill="#262728"/>
<path d="M17.6558 52.9653H13.2422V57.3789H17.6558V52.9653Z" fill="#262728"/>
<path d="M30.896 52.9653H26.4824V57.3789H30.896V52.9653Z" fill="#262728"/>
<path d="M44.1382 52.9653H39.7246V57.3789H44.1382V52.9653Z" fill="#262728"/>
<path d="M48.5523 52.9653H44.1387V57.3789H48.5523V52.9653Z" fill="#262728"/>
<path d="M57.3784 52.9653H52.9648V57.3789H57.3784V52.9653Z" fill="#262728"/>
<path d="M61.7925 52.9653H57.3789V57.3789H61.7925V52.9653Z" fill="#262728"/>
<path d="M66.2066 52.9653H61.793V57.3789H66.2066V52.9653Z" fill="#262728"/>
<path d="M70.6206 52.9653H66.207V57.3789H70.6206V52.9653Z" fill="#262728"/>
<path d="M75.0347 52.9653H70.6211V57.3789H75.0347V52.9653Z" fill="#262728"/>
<path d="M79.4488 52.9653H75.0352V57.3789H79.4488V52.9653Z" fill="#262728"/>
<path d="M101.517 52.9653H97.1035V57.3789H101.517V52.9653Z" fill="#262728"/>
<path d="M105.931 52.9653H101.518V57.3789H105.931V52.9653Z" fill="#262728"/>
<path d="M110.345 52.9653H105.932V57.3789H110.345V52.9653Z" fill="#262728"/>
<path d="M4.41361 57.3794H0L0 61.793H4.41361L4.41361 57.3794Z" fill="#262728"/>
<path d="M13.2417 57.3794H8.82812V61.793H13.2417V57.3794Z" fill="#262728"/>
<path d="M17.6558 57.3794H13.2422V61.793H17.6558V57.3794Z" fill="#262728"/>
<path d="M35.3101 57.3794H30.8965V61.793H35.3101V57.3794Z" fill="#262728"/>
<path d="M44.1382 57.3794H39.7246V61.793H44.1382V57.3794Z" fill="#262728"/>
<path d="M52.9644 57.3794H48.5508V61.793H52.9644V57.3794Z" fill="#262728"/>
<path d="M57.3784 57.3794H52.9648V61.793H57.3784V57.3794Z" fill="#262728"/>
<path d="M79.4488 57.3794H75.0352V61.793H79.4488V57.3794Z" fill="#262728"/>
<path d="M83.8628 57.3794H79.4492V61.793H83.8628V57.3794Z" fill="#262728"/>
<path d="M88.2749 57.3794H83.8613V61.793H88.2749V57.3794Z" fill="#262728"/>
<path d="M97.1031 57.3794H92.6895V61.793H97.1031V57.3794Z" fill="#262728"/>
<path d="M114.759 57.3794H110.346V61.793H114.759V57.3794Z" fill="#262728"/>
<path d="M119.171 57.3794H114.758V61.793H119.171V57.3794Z" fill="#262728"/>
<path d="M4.41361 61.793H0L0 66.2066H4.41361L4.41361 61.793Z" fill="#262728"/>
<path d="M17.6558 61.793H13.2422V66.2066H17.6558V61.793Z" fill="#262728"/>
<path d="M26.482 61.793H22.0684V66.2066H26.482V61.793Z" fill="#262728"/>
<path d="M30.896 61.793H26.4824V66.2066H30.896V61.793Z" fill="#262728"/>
<path d="M35.3101 61.793H30.8965V66.2066H35.3101V61.793Z" fill="#262728"/>
<path d="M44.1382 61.793H39.7246V66.2066H44.1382V61.793Z" fill="#262728"/>
<path d="M52.9644 61.793H48.5508V66.2066H52.9644V61.793Z" fill="#262728"/>
<path d="M61.7925 61.793H57.3789V66.2066H61.7925V61.793Z" fill="#262728"/>
<path d="M70.6206 61.793H66.207V66.2066H70.6206V61.793Z" fill="#262728"/>
<path d="M75.0347 61.793H70.6211V66.2066H75.0347V61.793Z" fill="#262728"/>
<path d="M79.4488 61.793H75.0352V66.2066H79.4488V61.793Z" fill="#262728"/>
<path d="M83.8628 61.793H79.4492V66.2066H83.8628V61.793Z" fill="#262728"/>
<path d="M97.1031 61.793H92.6895V66.2066H97.1031V61.793Z" fill="#262728"/>
<path d="M101.517 61.793H97.1035V66.2066H101.517V61.793Z" fill="#262728"/>
<path d="M110.345 61.793H105.932V66.2066H110.345V61.793Z" fill="#262728"/>
<path d="M119.171 61.793H114.758V66.2066H119.171V61.793Z" fill="#262728"/>
<path d="M123.585 61.793H119.172V66.2066H123.585V61.793Z" fill="#262728"/>
<path d="M128 61.793H123.586V66.2066H128V61.793Z" fill="#262728"/>
<path d="M22.0679 66.207H17.6543V70.6206H22.0679V66.207Z" fill="#262728"/>
<path d="M39.7222 66.207H35.3086V70.6206H39.7222V66.207Z" fill="#262728"/>
<path d="M48.5503 66.207H44.1367V70.6206H48.5503V66.207Z" fill="#262728"/>
<path d="M52.9644 66.207H48.5508V70.6206H52.9644V66.207Z" fill="#262728"/>
<path d="M75.0327 66.207H70.6191V70.6206H75.0327V66.207Z" fill="#262728"/>
<path d="M79.4468 66.207H75.0332V70.6206H79.4468V66.207Z" fill="#262728"/>
<path d="M83.8609 66.207H79.4473V70.6206H83.8609V66.207Z" fill="#262728"/>
<path d="M88.2749 66.207H83.8613V70.6206H88.2749V66.207Z" fill="#262728"/>
<path d="M92.689 66.207H88.2754V70.6206H92.689V66.207Z" fill="#262728"/>
<path d="M97.1031 66.207H92.6895V70.6206H97.1031V66.207Z" fill="#262728"/>
<path d="M101.515 66.207H97.1016V70.6206H101.515V66.207Z" fill="#262728"/>
<path d="M105.929 66.207H101.516V70.6206H105.929V66.207Z" fill="#262728"/>
<path d="M110.343 66.207H105.93V70.6206H110.343V66.207Z" fill="#262728"/>
<path d="M128 66.207H123.586V70.6206H128V66.207Z" fill="#262728"/>
<path d="M26.482 70.6206H22.0684V75.0342H26.482V70.6206Z" fill="#262728"/>
<path d="M30.896 70.6206H26.4824V75.0342H30.896V70.6206Z" fill="#262728"/>
<path d="M35.3101 70.6206H30.8965V75.0342H35.3101V70.6206Z" fill="#262728"/>
<path d="M39.7242 70.6206H35.3105V75.0342H39.7242V70.6206Z" fill="#262728"/>
<path d="M55.7945 72.204H51.3809V76.6176H55.7945V72.204Z" fill="#262728"/>
<path d="M66.2066 70.6206H61.793V75.0342H66.2066V70.6206Z" fill="#262728"/>
<path d="M75.0347 70.6206H70.6211V75.0342H75.0347V70.6206Z" fill="#262728"/>
<path d="M79.4468 70.6206H75.0332V75.0342H79.4468V70.6206Z" fill="#262728"/>
<path d="M83.8609 70.6206H79.4473V75.0342H83.8609V70.6206Z" fill="#262728"/>
<path d="M105.931 70.6206H101.518V75.0342H105.931V70.6206Z" fill="#262728"/>
<path d="M114.757 70.6206H110.344V75.0342H114.757V70.6206Z" fill="#262728"/>
<path d="M123.585 70.6206H119.172V75.0342H123.585V70.6206Z" fill="#262728"/>
<path d="M13.2417 75.0347H8.82812V79.4483H13.2417V75.0347Z" fill="#262728"/>
<path d="M17.6558 75.0347H13.2422V79.4483H17.6558V75.0347Z" fill="#262728"/>
<path d="M26.4839 75.0347H22.0703V79.4483H26.4839V75.0347Z" fill="#262728"/>
<path d="M35.3101 75.0347H30.8965V79.4483H35.3101V75.0347Z" fill="#262728"/>
<path d="M39.7242 75.0347H35.3105V79.4483H39.7242V75.0347Z" fill="#262728"/>
<path d="M44.1382 75.0347H39.7246V79.4483H44.1382V75.0347Z" fill="#262728"/>
<path d="M75.0347 75.0347H70.6211V79.4483H75.0347V75.0347Z" fill="#262728"/>
<path d="M83.8628 75.0347H79.4492V79.4483H83.8628V75.0347Z" fill="#262728"/>
<path d="M88.2769 75.0347H83.8633V79.4483H88.2769V75.0347Z" fill="#262728"/>
<path d="M92.6909 75.0347H88.2773V79.4483H92.6909V75.0347Z" fill="#262728"/>
<path d="M97.1031 75.0347H92.6895V79.4483H97.1031V75.0347Z" fill="#262728"/>
<path d="M105.931 75.0347H101.518V79.4483H105.931V75.0347Z" fill="#262728"/>
<path d="M114.759 75.0347H110.346V79.4483H114.759V75.0347Z" fill="#262728"/>
<path d="M128 75.0347H123.586V79.4483H128V75.0347Z" fill="#262728"/>
<path d="M4.41361 79.4482H0L0 83.8618H4.41361L4.41361 79.4482Z" fill="#262728"/>
<path d="M22.0679 79.4482H17.6543V83.8618H22.0679V79.4482Z" fill="#262728"/>
<path d="M30.896 79.4482H26.4824V83.8618H30.896V79.4482Z" fill="#262728"/>
<path d="M35.3101 79.4482H30.8965V83.8618H35.3101V79.4482Z" fill="#262728"/>
<path d="M39.7242 79.4482H35.3105V83.8618H39.7242V79.4482Z" fill="#262728"/>
<path d="M44.1382 79.4482H39.7246V83.8618H44.1382V79.4482Z" fill="#262728"/>
<path d="M61.7925 79.4482H57.3789V83.8618H61.7925V79.4482Z" fill="#262728"/>
<path d="M66.2066 79.4482H61.793V83.8618H66.2066V79.4482Z" fill="#262728"/>
<path d="M79.4488 79.4482H75.0352V83.8618H79.4488V79.4482Z" fill="#262728"/>
<path d="M83.8628 79.4482H79.4492V83.8618H83.8628V79.4482Z" fill="#262728"/>
<path d="M92.689 79.4482H88.2754V83.8618H92.689V79.4482Z" fill="#262728"/>
<path d="M105.931 79.4482H101.518V83.8618H105.931V79.4482Z" fill="#262728"/>
<path d="M114.759 79.4482H110.346V83.8618H114.759V79.4482Z" fill="#262728"/>
<path d="M119.171 79.4482H114.758V83.8618H119.171V79.4482Z" fill="#262728"/>
<path d="M123.585 79.4482H119.172V83.8618H123.585V79.4482Z" fill="#262728"/>
<path d="M128 79.4482H123.586V83.8618H128V79.4482Z" fill="#262728"/>
<path d="M13.2417 83.8623H8.82812V88.2759H13.2417V83.8623Z" fill="#262728"/>
<path d="M17.6558 83.8623H13.2422V88.2759H17.6558V83.8623Z" fill="#262728"/>
<path d="M22.0699 83.8623H17.6562V88.2759H22.0699V83.8623Z" fill="#262728"/>
<path d="M35.3101 83.8623H30.8965V88.2759H35.3101V83.8623Z" fill="#262728"/>
<path d="M39.7242 83.8623H35.3105V88.2759H39.7242V83.8623Z" fill="#262728"/>
<path d="M44.1382 83.8623H39.7246V88.2759H44.1382V83.8623Z" fill="#262728"/>
<path d="M52.9663 83.8623H48.5527V88.2759H52.9663V83.8623Z" fill="#262728"/>
<path d="M61.7925 83.8623H57.3789V88.2759H61.7925V83.8623Z" fill="#262728"/>
<path d="M66.2066 83.8623H61.793V88.2759H66.2066V83.8623Z" fill="#262728"/>
<path d="M70.6206 83.8623H66.207V88.2759H70.6206V83.8623Z" fill="#262728"/>
<path d="M75.0347 83.8623H70.6211V88.2759H75.0347V83.8623Z" fill="#262728"/>
<path d="M88.2769 83.8623H83.8633V88.2759H88.2769V83.8623Z" fill="#262728"/>
<path d="M101.517 83.8623H97.1035V88.2759H101.517V83.8623Z" fill="#262728"/>
<path d="M128 83.8623H123.586V88.2759H128V83.8623Z" fill="#262728"/>
<path d="M8.82767 88.2759H4.41406L4.41406 92.6895H8.82767V88.2759Z" fill="#262728"/>
<path d="M13.2417 88.2759H8.82812V92.6895H13.2417V88.2759Z" fill="#262728"/>
<path d="M30.896 88.2759H26.4824V92.6895H30.896V88.2759Z" fill="#262728"/>
<path d="M44.1382 88.2759H39.7246V92.6895H44.1382V88.2759Z" fill="#262728"/>
<path d="M61.7925 88.2759H57.3789V92.6895H61.7925V88.2759Z" fill="#262728"/>
<path d="M66.2066 88.2759H61.793V92.6895H66.2066V88.2759Z" fill="#262728"/>
<path d="M79.4488 88.2759H75.0352V92.6895H79.4488V88.2759Z" fill="#262728"/>
<path d="M83.8628 88.2759H79.4492V92.6895H83.8628V88.2759Z" fill="#262728"/>
<path d="M88.2769 88.2759H83.8633V92.6895H88.2769V88.2759Z" fill="#262728"/>
<path d="M92.689 88.2759H88.2754V92.6895H92.689V88.2759Z" fill="#262728"/>
<path d="M97.1031 88.2759H92.6895V92.6895H97.1031V88.2759Z" fill="#262728"/>
<path d="M101.517 88.2759H97.1035V92.6895H101.517V88.2759Z" fill="#262728"/>
<path d="M105.931 88.2759H101.518V92.6895H105.931V88.2759Z" fill="#262728"/>
<path d="M110.345 88.2759H105.932V92.6895H110.345V88.2759Z" fill="#262728"/>
<path d="M114.759 88.2759H110.346V92.6895H114.759V88.2759Z" fill="#262728"/>
<path d="M119.173 88.2759H114.76V92.6895H119.173V88.2759Z" fill="#262728"/>
<path d="M123.585 88.2759H119.172V92.6895H123.585V88.2759Z" fill="#262728"/>
<path d="M128 88.2759H123.586V92.6895H128V88.2759Z" fill="#262728"/>
<path d="M39.7242 92.6895H35.3105V97.1031H39.7242V92.6895Z" fill="#262728"/>
<path d="M44.1382 92.6895H39.7246V97.1031H44.1382V92.6895Z" fill="#262728"/>
<path d="M70.6206 92.6895H66.207V97.1031H70.6206V92.6895Z" fill="#262728"/>
<path d="M75.0347 92.6895H70.6211V97.1031H75.0347V92.6895Z" fill="#262728"/>
<path d="M88.2749 92.6895H83.8613V97.1031H88.2749V92.6895Z" fill="#262728"/>
<path d="M92.689 92.6895H88.2754V97.1031H92.689V92.6895Z" fill="#262728"/>
<path d="M110.345 92.6895H105.932V97.1031H110.345V92.6895Z" fill="#262728"/>
<path d="M128 92.6895H123.586V97.1031H128V92.6895Z" fill="#262728"/>
<path d="M4.41361 97.1035H0L0 101.517H4.41361L4.41361 97.1035Z" fill="#262728"/>
<path d="M8.82767 97.1035H4.41406L4.41406 101.517H8.82767V97.1035Z" fill="#262728"/>
<path d="M13.2417 97.1035H8.82812V101.517H13.2417V97.1035Z" fill="#262728"/>
<path d="M17.6558 97.1035H13.2422V101.517H17.6558V97.1035Z" fill="#262728"/>
<path d="M22.0679 97.1035H17.6543V101.517H22.0679V97.1035Z" fill="#262728"/>
<path d="M26.482 97.1035H22.0684V101.517H26.482V97.1035Z" fill="#262728"/>
<path d="M30.896 97.1035H26.4824V101.517H30.896V97.1035Z" fill="#262728"/>
<path d="M44.1382 97.1035H39.7246V101.517H44.1382V97.1035Z" fill="#262728"/>
<path d="M48.5523 97.1035H44.1387V101.517H48.5523V97.1035Z" fill="#262728"/>
<path d="M66.2066 97.1035H61.793V101.517H66.2066V97.1035Z" fill="#262728"/>
<path d="M70.6206 97.1035H66.207V101.517H70.6206V97.1035Z" fill="#262728"/>
<path d="M83.8628 97.1035H79.4492V101.517H83.8628V97.1035Z" fill="#262728"/>
<path d="M92.689 97.1035H88.2754V101.517H92.689V97.1035Z" fill="#262728"/>
<path d="M101.517 97.1035H97.1035V101.517H101.517V97.1035Z" fill="#262728"/>
<path d="M110.345 97.1035H105.932V101.517H110.345V97.1035Z" fill="#262728"/>
<path d="M123.585 97.1035H119.172V101.517H123.585V97.1035Z" fill="#262728"/>
<path d="M4.41361 101.517H0L0 105.931H4.41361L4.41361 101.517Z" fill="#262728"/>
<path d="M30.896 101.517H26.4824V105.931H30.896V101.517Z" fill="#262728"/>
<path d="M52.9644 101.517H48.5508V105.931H52.9644V101.517Z" fill="#262728"/>
<path d="M57.3784 101.517H52.9648V105.931H57.3784V101.517Z" fill="#262728"/>
<path d="M61.7925 101.517H57.3789V105.931H61.7925V101.517Z" fill="#262728"/>
<path d="M66.2066 101.517H61.793V105.931H66.2066V101.517Z" fill="#262728"/>
<path d="M70.6206 101.517H66.207V105.931H70.6206V101.517Z" fill="#262728"/>
<path d="M79.4488 101.517H75.0352V105.931H79.4488V101.517Z" fill="#262728"/>
<path d="M92.689 101.517H88.2754V105.931H92.689V101.517Z" fill="#262728"/>
<path d="M110.345 101.517H105.932V105.931H110.345V101.517Z" fill="#262728"/>
<path d="M119.171 101.517H114.758V105.931H119.171V101.517Z" fill="#262728"/>
<path d="M4.41361 105.931H0L0 110.345H4.41361L4.41361 105.931Z" fill="#262728"/>
<path d="M13.2417 105.931H8.82812V110.345H13.2417V105.931Z" fill="#262728"/>
<path d="M17.6558 105.931H13.2422V110.345H17.6558V105.931Z" fill="#262728"/>
<path d="M22.0679 105.931H17.6543V110.345H22.0679V105.931Z" fill="#262728"/>
<path d="M30.896 105.931H26.4824V110.345H30.896V105.931Z" fill="#262728"/>
<path d="M44.1382 105.931H39.7246V110.345H44.1382V105.931Z" fill="#262728"/>
<path d="M52.9644 105.931H48.5508V110.345H52.9644V105.931Z" fill="#262728"/>
<path d="M70.6206 105.931H66.207V110.345H70.6206V105.931Z" fill="#262728"/>
<path d="M75.0347 105.931H70.6211V110.345H75.0347V105.931Z" fill="#262728"/>
<path d="M83.8628 105.931H79.4492V110.345H83.8628V105.931Z" fill="#262728"/>
<path d="M88.2749 105.931H83.8613V110.345H88.2749V105.931Z" fill="#262728"/>
<path d="M92.689 105.931H88.2754V110.345H92.689V105.931Z" fill="#262728"/>
<path d="M97.1031 105.931H92.6895V110.345H97.1031V105.931Z" fill="#262728"/>
<path d="M101.517 105.931H97.1035V110.345H101.517V105.931Z" fill="#262728"/>
<path d="M105.931 105.931H101.518V110.345H105.931V105.931Z" fill="#262728"/>
<path d="M110.345 105.931H105.932V110.345H110.345V105.931Z" fill="#262728"/>
<path d="M114.759 105.931H110.346V110.345H114.759V105.931Z" fill="#262728"/>
<path d="M119.171 105.931H114.758V110.345H119.171V105.931Z" fill="#262728"/>
<path d="M123.585 105.931H119.172V110.345H123.585V105.931Z" fill="#262728"/>
<path d="M4.41361 110.345H0L0 114.758H4.41361L4.41361 110.345Z" fill="#262728"/>
<path d="M13.2417 110.345H8.82812V114.758H13.2417V110.345Z" fill="#262728"/>
<path d="M17.6558 110.345H13.2422V114.758H17.6558V110.345Z" fill="#262728"/>
<path d="M22.0679 110.345H17.6543V114.758H22.0679V110.345Z" fill="#262728"/>
<path d="M30.896 110.345H26.4824V114.758H30.896V110.345Z" fill="#262728"/>
<path d="M39.7242 110.345H35.3105V114.758H39.7242V110.345Z" fill="#262728"/>
<path d="M44.1382 110.345H39.7246V114.758H44.1382V110.345Z" fill="#262728"/>
<path d="M48.5523 110.345H44.1387V114.758H48.5523V110.345Z" fill="#262728"/>
<path d="M52.9644 110.345H48.5508V114.758H52.9644V110.345Z" fill="#262728"/>
<path d="M61.7925 110.345H57.3789V114.758H61.7925V110.345Z" fill="#262728"/>
<path d="M70.6206 110.345H66.207V114.758H70.6206V110.345Z" fill="#262728"/>
<path d="M75.0347 110.345H70.6211V114.758H75.0347V110.345Z" fill="#262728"/>
<path d="M79.4488 110.345H75.0352V114.758H79.4488V110.345Z" fill="#262728"/>
<path d="M83.8628 110.345H79.4492V114.758H83.8628V110.345Z" fill="#262728"/>
<path d="M97.1031 110.345H92.6895V114.758H97.1031V110.345Z" fill="#262728"/>
<path d="M101.517 110.345H97.1035V114.758H101.517V110.345Z" fill="#262728"/>
<path d="M110.345 110.345H105.932V114.758H110.345V110.345Z" fill="#262728"/>
<path d="M119.171 110.345H114.758V114.758H119.171V110.345Z" fill="#262728"/>
<path d="M4.41361 114.759H0L0 119.172H4.41361L4.41361 114.759Z" fill="#262728"/>
<path d="M13.2417 114.759H8.82812V119.172H13.2417V114.759Z" fill="#262728"/>
<path d="M17.6558 114.759H13.2422V119.172H17.6558V114.759Z" fill="#262728"/>
<path d="M22.0679 114.759H17.6543V119.172H22.0679V114.759Z" fill="#262728"/>
<path d="M30.896 114.759H26.4824V119.172H30.896V114.759Z" fill="#262728"/>
<path d="M39.7242 114.759H35.3105V119.172H39.7242V114.759Z" fill="#262728"/>
<path d="M48.5523 114.759H44.1387V119.172H48.5523V114.759Z" fill="#262728"/>
<path d="M57.3784 114.759H52.9648V119.172H57.3784V114.759Z" fill="#262728"/>
<path d="M66.2066 114.759H61.793V119.172H66.2066V114.759Z" fill="#262728"/>
<path d="M70.6206 114.759H66.207V119.172H70.6206V114.759Z" fill="#262728"/>
<path d="M75.0347 114.759H70.6211V119.172H75.0347V114.759Z" fill="#262728"/>
<path d="M79.4488 114.759H75.0352V119.172H79.4488V114.759Z" fill="#262728"/>
<path d="M83.8628 114.759H79.4492V119.172H83.8628V114.759Z" fill="#262728"/>
<path d="M97.1031 114.759H92.6895V119.172H97.1031V114.759Z" fill="#262728"/>
<path d="M114.759 114.759H110.346V119.172H114.759V114.759Z" fill="#262728"/>
<path d="M119.171 114.759H114.758V119.172H119.171V114.759Z" fill="#262728"/>
<path d="M123.585 114.759H119.172V119.172H123.585V114.759Z" fill="#262728"/>
<path d="M128 114.759H123.586V119.172H128V114.759Z" fill="#262728"/>
<path d="M4.41361 119.172H0L0 123.586H4.41361L4.41361 119.172Z" fill="#262728"/>
<path d="M30.896 119.172H26.4824V123.586H30.896V119.172Z" fill="#262728"/>
<path d="M39.7242 119.172H35.3105V123.586H39.7242V119.172Z" fill="#262728"/>
<path d="M44.1382 119.172H39.7246V123.586H44.1382V119.172Z" fill="#262728"/>
<path d="M48.5523 119.172H44.1387V123.586H48.5523V119.172Z" fill="#262728"/>
<path d="M57.3784 119.172H52.9648V123.586H57.3784V119.172Z" fill="#262728"/>
<path d="M61.7925 119.172H57.3789V123.586H61.7925V119.172Z" fill="#262728"/>
<path d="M83.8628 119.172H79.4492V123.586H83.8628V119.172Z" fill="#262728"/>
<path d="M88.2749 119.172H83.8613V123.586H88.2749V119.172Z" fill="#262728"/>
<path d="M105.931 119.172H101.518V123.586H105.931V119.172Z" fill="#262728"/>
<path d="M114.759 119.172H110.346V123.586H114.759V119.172Z" fill="#262728"/>
<path d="M119.171 119.172H114.758V123.586H119.171V119.172Z" fill="#262728"/>
<path d="M4.41361 123.586H0L0 128H4.41361L4.41361 123.586Z" fill="#262728"/>
<path d="M8.82767 123.586H4.41406L4.41406 128H8.82767V123.586Z" fill="#262728"/>
<path d="M13.2417 123.586H8.82812V128H13.2417V123.586Z" fill="#262728"/>
<path d="M17.6558 123.586H13.2422V128H17.6558V123.586Z" fill="#262728"/>
<path d="M22.0679 123.586H17.6543V128H22.0679V123.586Z" fill="#262728"/>
<path d="M26.482 123.586H22.0684V128H26.482V123.586Z" fill="#262728"/>
<path d="M30.896 123.586H26.4824V128H30.896V123.586Z" fill="#262728"/>
<path d="M39.7242 123.586H35.3105V128H39.7242V123.586Z" fill="#262728"/>
<path d="M44.1382 123.586H39.7246V128H44.1382V123.586Z" fill="#262728"/>
<path d="M52.9644 123.586H48.5508V128H52.9644V123.586Z" fill="#262728"/>
<path d="M79.4488 123.586H75.0352V128H79.4488V123.586Z" fill="#262728"/>
<path d="M83.8628 123.586H79.4492V128H83.8628V123.586Z" fill="#262728"/>
<path d="M88.2749 123.586H83.8613V128H88.2749V123.586Z" fill="#262728"/>
<path d="M101.517 123.586H97.1035V128H101.517V123.586Z" fill="#262728"/>
<path d="M114.759 123.586H110.346V128H114.759V123.586Z" fill="#262728"/>
<path d="M123.585 123.586H119.172V128H123.585V123.586Z" fill="#262728"/>
</g>
<defs>
<clipPath id="clip0_1191_51">
<rect width="128" height="128" rx="2" fill="white"/>
</clipPath>
</defs>
</svg>
