<svg width="35" height="35" viewBox="0 0 41 41" fill="none" xmlns="http://www.w3.org/2000/svg">
<g clip-path="url(#clip0_1188_10)" >
<path d="M37.9019 18.8264C37.1154 11.8054 31.5029 6.17864 24.4819 5.37788C15.3018 4.32688 7.48717 11.4623 7.38707 20.4065L3.26886 20.4065C3.04007 20.4065 2.91853 20.6925 3.06152 20.8855L9.28889 29.365C9.39613 29.508 9.60347 29.508 9.71072 29.365L15.9381 20.8855C16.0811 20.6925 15.9524 20.4065 15.7307 20.4065L11.6197 20.4065C11.7198 14.1219 17.0677 9.08856 23.4595 9.51754C28.9576 9.88217 33.419 14.365 33.7694 19.8631C34.1411 25.6901 29.98 30.6448 24.4748 31.5314C23.4524 31.6958 22.7088 32.5895 22.7088 33.6191C22.7088 34.8989 23.8456 35.8998 25.1111 35.6996C32.9543 34.4556 38.8385 27.213 37.9019 18.8264Z" fill="#262728"/>
<rect x="1.5" y="39.5" width="38" height="38" rx="3.5" transform="rotate(-90 1.5 39.5)" stroke="#262728" stroke-width="3"/>
</g>
</svg>
