<svg width="100px" height="100px" viewBox="0 0 84 84" fill="none" xmlns="http://www.w3.org/2000/svg">
<g class="barcodePath" clip-path="url(#clip0_1554_512)">
<path d="M3.99987 0H0V3.99987H3.99987V0Z" fill="black"/>
<path d="M7.99987 -1.19209e-06H4V3.99987H7.99987V-1.19209e-06Z" fill="black"/>
<path d="M11.9999 -1.19209e-06H8V3.99987H11.9999V-1.19209e-06Z" fill="black"/>
<path d="M15.9999 -1.19209e-06H12V3.99987H15.9999V-1.19209e-06Z" fill="black"/>
<path d="M19.9999 -1.19209e-06H16V3.99987H19.9999V-1.19209e-06Z" fill="black"/>
<path d="M23.9999 -1.19209e-06H20V3.99987H23.9999V-1.19209e-06Z" fill="black"/>
<path d="M27.9999 -1.19209e-06H24V3.99987H27.9999V-1.19209e-06Z" fill="black"/>
<path d="M39.9999 -1.19209e-06H36V3.99987H39.9999V-1.19209e-06Z" fill="black"/>
<path d="M47.9999 -1.19209e-06H44V3.99987H47.9999V-1.19209e-06Z" fill="black"/>
<path d="M51.9999 -1.19209e-06H48V3.99987H51.9999V-1.19209e-06Z" fill="black"/>
<path d="M59.9999 -1.19209e-06H56V3.99987H59.9999V-1.19209e-06Z" fill="black"/>
<path d="M63.9999 -1.19209e-06H60V3.99987H63.9999V-1.19209e-06Z" fill="black"/>
<path d="M67.9999 -1.19209e-06H64V3.99987H67.9999V-1.19209e-06Z" fill="black"/>
<path d="M71.9999 -1.19209e-06H68V3.99987H71.9999V-1.19209e-06Z" fill="black"/>
<path d="M75.9999 -1.19209e-06H72V3.99987H75.9999V-1.19209e-06Z" fill="black"/>
<path d="M79.9999 -1.19209e-06H76V3.99987H79.9999V-1.19209e-06Z" fill="black"/>
<path d="M83.9999 -1.19209e-06H80V3.99987H83.9999V-1.19209e-06Z" fill="black"/>
<path d="M3.99987 3.99987H0V7.99975H3.99987V3.99987Z" fill="black"/>
<path d="M27.9999 3.99987H24V7.99975H27.9999V3.99987Z" fill="black"/>
<path d="M35.9999 3.99987H32V7.99975H35.9999V3.99987Z" fill="black"/>
<path d="M39.9999 3.99987H36V7.99975H39.9999V3.99987Z" fill="black"/>
<path d="M47.9999 3.99987H44V7.99975H47.9999V3.99987Z" fill="black"/>
<path d="M59.9999 3.99987H56V7.99975H59.9999V3.99987Z" fill="black"/>
<path d="M83.9999 3.99987H80V7.99975H83.9999V3.99987Z" fill="black"/>
<path d="M3.99987 8.00012H0V12H3.99987V8.00012Z" fill="black"/>
<path d="M11.9999 8.00012H8V12H11.9999V8.00012Z" fill="black"/>
<path d="M15.9999 8.00012H12V12H15.9999V8.00012Z" fill="black"/>
<path d="M19.9999 8.00012H16V12H19.9999V8.00012Z" fill="black"/>
<path d="M27.9999 8.00012H24V12H27.9999V8.00012Z" fill="black"/>
<path d="M35.9999 8.00012H32V12H35.9999V8.00012Z" fill="black"/>
<path d="M39.9999 8.00012H36V12H39.9999V8.00012Z" fill="black"/>
<path d="M51.9999 8.00012H48V12H51.9999V8.00012Z" fill="black"/>
<path d="M59.9999 8.00012H56V12H59.9999V8.00012Z" fill="black"/>
<path d="M67.9999 8.00012H64V12H67.9999V8.00012Z" fill="black"/>
<path d="M71.9999 8.00012H68V12H71.9999V8.00012Z" fill="black"/>
<path d="M75.9999 8.00012H72V12H75.9999V8.00012Z" fill="black"/>
<path d="M83.9999 8.00012H80V12H83.9999V8.00012Z" fill="black"/>
<path d="M3.99987 12H0V15.9999H3.99987V12Z" fill="black"/>
<path d="M11.9999 12H8V15.9999H11.9999V12Z" fill="black"/>
<path d="M15.9999 12H12V15.9999H15.9999V12Z" fill="black"/>
<path d="M19.9999 12H16V15.9999H19.9999V12Z" fill="black"/>
<path d="M27.9999 12H24V15.9999H27.9999V12Z" fill="black"/>
<path d="M39.9999 12H36V15.9999H39.9999V12Z" fill="black"/>
<path d="M47.9999 12H44V15.9999H47.9999V12Z" fill="black"/>
<path d="M59.9999 12H56V15.9999H59.9999V12Z" fill="black"/>
<path d="M67.9999 12H64V15.9999H67.9999V12Z" fill="black"/>
<path d="M71.9999 12H68V15.9999H71.9999V12Z" fill="black"/>
<path d="M75.9999 12H72V15.9999H75.9999V12Z" fill="black"/>
<path d="M83.9999 12H80V15.9999H83.9999V12Z" fill="black"/>
<path d="M3.99987 15.9999H0V19.9997H3.99987V15.9999Z" fill="black"/>
<path d="M11.9999 15.9999H8V19.9997H11.9999V15.9999Z" fill="black"/>
<path d="M15.9999 15.9999H12V19.9997H15.9999V15.9999Z" fill="black"/>
<path d="M19.9999 15.9999H16V19.9997H19.9999V15.9999Z" fill="black"/>
<path d="M27.9999 15.9999H24V19.9997H27.9999V15.9999Z" fill="black"/>
<path d="M35.9999 15.9999H32V19.9997H35.9999V15.9999Z" fill="black"/>
<path d="M51.9999 15.9999H48V19.9997H51.9999V15.9999Z" fill="black"/>
<path d="M59.9999 15.9999H56V19.9997H59.9999V15.9999Z" fill="black"/>
<path d="M67.9999 15.9999H64V19.9997H67.9999V15.9999Z" fill="black"/>
<path d="M71.9999 15.9999H68V19.9997H71.9999V15.9999Z" fill="black"/>
<path d="M75.9999 15.9999H72V19.9997H75.9999V15.9999Z" fill="black"/>
<path d="M83.9999 15.9999H80V19.9997H83.9999V15.9999Z" fill="black"/>
<path d="M3.99987 20.0001H0V24H3.99987V20.0001Z" fill="black"/>
<path d="M27.9999 20.0001H24V24H27.9999V20.0001Z" fill="black"/>
<path d="M35.9999 20.0001H32V24H35.9999V20.0001Z" fill="black"/>
<path d="M47.9999 20.0001H44V24H47.9999V20.0001Z" fill="black"/>
<path d="M51.9999 20.0001H48V24H51.9999V20.0001Z" fill="black"/>
<path d="M59.9999 20.0001H56V24H59.9999V20.0001Z" fill="black"/>
<path d="M83.9999 20.0001H80V24H83.9999V20.0001Z" fill="black"/>
<path d="M3.99987 24H0V27.9999H3.99987V24Z" fill="black"/>
<path d="M7.99987 24H4V27.9999H7.99987V24Z" fill="black"/>
<path d="M11.9999 24H8V27.9999H11.9999V24Z" fill="black"/>
<path d="M15.9999 24H12V27.9999H15.9999V24Z" fill="black"/>
<path d="M19.9999 24H16V27.9999H19.9999V24Z" fill="black"/>
<path d="M23.9999 24H20V27.9999H23.9999V24Z" fill="black"/>
<path d="M27.9999 24H24V27.9999H27.9999V24Z" fill="black"/>
<path d="M35.9999 24H32V27.9999H35.9999V24Z" fill="black"/>
<path d="M43.9999 24H40V27.9999H43.9999V24Z" fill="black"/>
<path d="M51.9999 24H48V27.9999H51.9999V24Z" fill="black"/>
<path d="M59.9999 24H56V27.9999H59.9999V24Z" fill="black"/>
<path d="M63.9999 24H60V27.9999H63.9999V24Z" fill="black"/>
<path d="M67.9999 24H64V27.9999H67.9999V24Z" fill="black"/>
<path d="M71.9999 24H68V27.9999H71.9999V24Z" fill="black"/>
<path d="M75.9999 24H72V27.9999H75.9999V24Z" fill="black"/>
<path d="M79.9999 24H76V27.9999H79.9999V24Z" fill="black"/>
<path d="M83.9999 24H80V27.9999H83.9999V24Z" fill="black"/>
<path d="M35.9999 27.9999H32V31.9998H35.9999V27.9999Z" fill="black"/>
<path d="M39.9999 27.9999H36V31.9998H39.9999V27.9999Z" fill="black"/>
<path d="M43.9999 27.9999H40V31.9998H43.9999V27.9999Z" fill="black"/>
<path d="M47.9999 27.9999H44V31.9998H47.9999V27.9999Z" fill="black"/>
<path d="M51.9999 27.9999H48V31.9998H51.9999V27.9999Z" fill="black"/>
<path d="M3.99987 32.0001H0V36H3.99987V32.0001Z" fill="black"/>
<path d="M7.99987 32.0001H4V36H7.99987V32.0001Z" fill="black"/>
<path d="M15.9999 32.0001H12V36H15.9999V32.0001Z" fill="black"/>
<path d="M27.9999 32.0001H24V36H27.9999V32.0001Z" fill="black"/>
<path d="M31.9999 32.0001H28V36H31.9999V32.0001Z" fill="black"/>
<path d="M39.9999 32.0001H36V36H39.9999V32.0001Z" fill="black"/>
<path d="M43.9999 32.0001H40V36H43.9999V32.0001Z" fill="black"/>
<path d="M59.9999 32.0001H56V36H59.9999V32.0001Z" fill="black"/>
<path d="M63.9999 32.0001H60V36H63.9999V32.0001Z" fill="black"/>
<path d="M67.9999 32.0001H64V36H67.9999V32.0001Z" fill="black"/>
<path d="M75.9999 32.0001H72V36H75.9999V32.0001Z" fill="black"/>
<path d="M79.9999 32.0001H76V36H79.9999V32.0001Z" fill="black"/>
<path d="M11.9999 36H8V39.9999H11.9999V36Z" fill="black"/>
<path d="M31.9999 36H28V39.9999H31.9999V36Z" fill="black"/>
<path d="M35.9999 36H32V39.9999H35.9999V36Z" fill="black"/>
<path d="M39.9999 36H36V39.9999H39.9999V36Z" fill="black"/>
<path d="M59.9999 36H56V39.9999H59.9999V36Z" fill="black"/>
<path d="M63.9999 36H60V39.9999H63.9999V36Z" fill="black"/>
<path d="M75.9999 36H72V39.9999H75.9999V36Z" fill="black"/>
<path d="M79.9999 36H76V39.9999H79.9999V36Z" fill="black"/>
<path d="M83.9999 36H80V39.9999H83.9999V36Z" fill="black"/>
<path d="M11.9999 39.9999H8V43.9997H11.9999V39.9999Z" fill="black"/>
<path d="M19.9999 39.9999H16V43.9997H19.9999V39.9999Z" fill="black"/>
<path d="M23.9999 39.9999H20V43.9997H23.9999V39.9999Z" fill="black"/>
<path d="M27.9999 39.9999H24V43.9997H27.9999V39.9999Z" fill="black"/>
<path d="M31.9999 39.9999H28V43.9997H31.9999V39.9999Z" fill="black"/>
<path d="M35.9999 39.9999H32V43.9997H35.9999V39.9999Z" fill="black"/>
<path d="M51.9999 39.9999H48V43.9997H51.9999V39.9999Z" fill="black"/>
<path d="M55.9999 39.9999H52V43.9997H55.9999V39.9999Z" fill="black"/>
<path d="M71.9999 39.9999H68V43.9997H71.9999V39.9999Z" fill="black"/>
<path d="M83.9999 39.9999H80V43.9997H83.9999V39.9999Z" fill="black"/>
<path d="M3.99987 44.0001H0V48H3.99987V44.0001Z" fill="black"/>
<path d="M7.99987 44.0001H4V48H7.99987V44.0001Z" fill="black"/>
<path d="M19.9999 44.0001H16V48H19.9999V44.0001Z" fill="black"/>
<path d="M31.9999 44.0001H28V48H31.9999V44.0001Z" fill="black"/>
<path d="M35.9999 44.0001H32V48H35.9999V44.0001Z" fill="black"/>
<path d="M39.9999 44.0001H36V48H39.9999V44.0001Z" fill="black"/>
<path d="M43.9999 44.0001H40V48H43.9999V44.0001Z" fill="black"/>
<path d="M47.9999 44.0001H44V48H47.9999V44.0001Z" fill="black"/>
<path d="M67.9999 44.0001H64V48H67.9999V44.0001Z" fill="black"/>
<path d="M71.9999 44.0001H68V48H71.9999V44.0001Z" fill="black"/>
<path d="M79.9999 44.0001H76V48H79.9999V44.0001Z" fill="black"/>
<path d="M7.99987 48H4V51.9999H7.99987V48Z" fill="black"/>
<path d="M11.9999 48H8V51.9999H11.9999V48Z" fill="black"/>
<path d="M15.9999 48H12V51.9999H15.9999V48Z" fill="black"/>
<path d="M23.9999 48H20V51.9999H23.9999V48Z" fill="black"/>
<path d="M27.9999 48H24V51.9999H27.9999V48Z" fill="black"/>
<path d="M31.9999 48H28V51.9999H31.9999V48Z" fill="black"/>
<path d="M39.9999 48H36V51.9999H39.9999V48Z" fill="black"/>
<path d="M51.9999 48H48V51.9999H51.9999V48Z" fill="black"/>
<path d="M59.9999 48H56V51.9999H59.9999V48Z" fill="black"/>
<path d="M63.9999 48H60V51.9999H63.9999V48Z" fill="black"/>
<path d="M67.9999 48H64V51.9999H67.9999V48Z" fill="black"/>
<path d="M71.9999 48H68V51.9999H71.9999V48Z" fill="black"/>
<path d="M79.9999 48H76V51.9999H79.9999V48Z" fill="black"/>
<path d="M35.9999 51.9999H32V55.9997H35.9999V51.9999Z" fill="black"/>
<path d="M43.9999 51.9999H40V55.9997H43.9999V51.9999Z" fill="black"/>
<path d="M47.9999 51.9999H44V55.9997H47.9999V51.9999Z" fill="black"/>
<path d="M63.9999 51.9999H60V55.9997H63.9999V51.9999Z" fill="black"/>
<path d="M83.9999 51.9999H80V55.9997H83.9999V51.9999Z" fill="black"/>
<path d="M3.99987 56.0001H0V60H3.99987V56.0001Z" fill="black"/>
<path d="M7.99987 56.0001H4V60H7.99987V56.0001Z" fill="black"/>
<path d="M11.9999 56.0001H8V60H11.9999V56.0001Z" fill="black"/>
<path d="M15.9999 56.0001H12V60H15.9999V56.0001Z" fill="black"/>
<path d="M19.9999 56.0001H16V60H19.9999V56.0001Z" fill="black"/>
<path d="M23.9999 56.0001H20V60H23.9999V56.0001Z" fill="black"/>
<path d="M27.9999 56.0001H24V60H27.9999V56.0001Z" fill="black"/>
<path d="M35.9999 56.0001H32V60H35.9999V56.0001Z" fill="black"/>
<path d="M55.9999 56.0001H52V60H55.9999V56.0001Z" fill="black"/>
<path d="M63.9999 56.0001H60V60H63.9999V56.0001Z" fill="black"/>
<path d="M67.9999 56.0001H64V60H67.9999V56.0001Z" fill="black"/>
<path d="M71.9999 56.0001H68V60H71.9999V56.0001Z" fill="black"/>
<path d="M75.9999 56.0001H72V60H75.9999V56.0001Z" fill="black"/>
<path d="M79.9999 56.0001H76V60H79.9999V56.0001Z" fill="black"/>
<path d="M3.99987 60H0V63.9999H3.99987V60Z" fill="black"/>
<path d="M27.9999 60H24V63.9999H27.9999V60Z" fill="black"/>
<path d="M47.9999 60H44V63.9999H47.9999V60Z" fill="black"/>
<path d="M51.9999 60H48V63.9999H51.9999V60Z" fill="black"/>
<path d="M55.9999 60H52V63.9999H55.9999V60Z" fill="black"/>
<path d="M63.9999 60H60V63.9999H63.9999V60Z" fill="black"/>
<path d="M67.9999 60H64V63.9999H67.9999V60Z" fill="black"/>
<path d="M83.9999 60H80V63.9999H83.9999V60Z" fill="black"/>
<path d="M3.99987 63.9999H0V67.9998H3.99987V63.9999Z" fill="black"/>
<path d="M11.9999 63.9999H8V67.9998H11.9999V63.9999Z" fill="black"/>
<path d="M15.9999 63.9999H12V67.9998H15.9999V63.9999Z" fill="black"/>
<path d="M19.9999 63.9999H16V67.9998H19.9999V63.9999Z" fill="black"/>
<path d="M27.9999 63.9999H24V67.9998H27.9999V63.9999Z" fill="black"/>
<path d="M47.9999 63.9999H44V67.9998H47.9999V63.9999Z" fill="black"/>
<path d="M59.9999 63.9999H56V67.9998H59.9999V63.9999Z" fill="black"/>
<path d="M63.9999 63.9999H60V67.9998H63.9999V63.9999Z" fill="black"/>
<path d="M67.9999 63.9999H64V67.9998H67.9999V63.9999Z" fill="black"/>
<path d="M83.9999 63.9999H80V67.9998H83.9999V63.9999Z" fill="black"/>
<path d="M3.99987 68.0001H0V72H3.99987V68.0001Z" fill="black"/>
<path d="M11.9999 68.0001H8V72H11.9999V68.0001Z" fill="black"/>
<path d="M15.9999 68.0001H12V72H15.9999V68.0001Z" fill="black"/>
<path d="M19.9999 68.0001H16V72H19.9999V68.0001Z" fill="black"/>
<path d="M27.9999 68.0001H24V72H27.9999V68.0001Z" fill="black"/>
<path d="M35.9999 68.0001H32V72H35.9999V68.0001Z" fill="black"/>
<path d="M39.9999 68.0001H36V72H39.9999V68.0001Z" fill="black"/>
<path d="M47.9999 68.0001H44V72H47.9999V68.0001Z" fill="black"/>
<path d="M63.9999 68.0001H60V72H63.9999V68.0001Z" fill="black"/>
<path d="M67.9999 68.0001H64V72H67.9999V68.0001Z" fill="black"/>
<path d="M75.9999 68.0001H72V72H75.9999V68.0001Z" fill="black"/>
<path d="M79.9999 68.0001H76V72H79.9999V68.0001Z" fill="black"/>
<path d="M83.9999 68.0001H80V72H83.9999V68.0001Z" fill="black"/>
<path d="M3.99987 72H0V75.9999H3.99987V72Z" fill="black"/>
<path d="M11.9999 72H8V75.9999H11.9999V72Z" fill="black"/>
<path d="M15.9999 72H12V75.9999H15.9999V72Z" fill="black"/>
<path d="M19.9999 72H16V75.9999H19.9999V72Z" fill="black"/>
<path d="M27.9999 72H24V75.9999H27.9999V72Z" fill="black"/>
<path d="M43.9999 72H40V75.9999H43.9999V72Z" fill="black"/>
<path d="M51.9999 72H48V75.9999H51.9999V72Z" fill="black"/>
<path d="M63.9999 72H60V75.9999H63.9999V72Z" fill="black"/>
<path d="M67.9999 72H64V75.9999H67.9999V72Z" fill="black"/>
<path d="M75.9999 72H72V75.9999H75.9999V72Z" fill="black"/>
<path d="M83.9999 72H80V75.9999H83.9999V72Z" fill="black"/>
<path d="M3.99987 75.9999H0V79.9997H3.99987V75.9999Z" fill="black"/>
<path d="M27.9999 75.9999H24V79.9997H27.9999V75.9999Z" fill="black"/>
<path d="M35.9999 75.9999H32V79.9997H35.9999V75.9999Z" fill="black"/>
<path d="M43.9999 75.9999H40V79.9997H43.9999V75.9999Z" fill="black"/>
<path d="M55.9999 75.9999H52V79.9997H55.9999V75.9999Z" fill="black"/>
<path d="M59.9999 75.9999H56V79.9997H59.9999V75.9999Z" fill="black"/>
<path d="M67.9999 75.9999H64V79.9997H67.9999V75.9999Z" fill="black"/>
<path d="M3.99987 80.0001H0V84H3.99987V80.0001Z" fill="black"/>
<path d="M7.99987 80.0001H4V84H7.99987V80.0001Z" fill="black"/>
<path d="M11.9999 80.0001H8V84H11.9999V80.0001Z" fill="black"/>
<path d="M15.9999 80.0001H12V84H15.9999V80.0001Z" fill="black"/>
<path d="M19.9999 80.0001H16V84H19.9999V80.0001Z" fill="black"/>
<path d="M23.9999 80.0001H20V84H23.9999V80.0001Z" fill="black"/>
<path d="M27.9999 80.0001H24V84H27.9999V80.0001Z" fill="black"/>
<path d="M35.9999 80.0001H32V84H35.9999V80.0001Z" fill="black"/>
<path d="M43.9999 80.0001H40V84H43.9999V80.0001Z" fill="black"/>
<path d="M47.9999 80.0001H44V84H47.9999V80.0001Z" fill="black"/>
<path d="M51.9999 80.0001H48V84H51.9999V80.0001Z" fill="black"/>
<path d="M71.9999 80.0001H68V84H71.9999V80.0001Z" fill="black"/>
<path d="M79.9999 80.0001H76V84H79.9999V80.0001Z" fill="black"/>
</g>
<defs>
<clipPath id="clip0_1554_512">
<rect width="84" height="84" fill="white"/>
</clipPath>
</defs>
</svg>
