<svg width="35" height="35" viewBox="0 0 41 41" fill="none" xmlns="http://www.w3.org/2000/svg">
<g clip-path="url(#clip0_1191_33)">
<rect x="1.5" y="39.5" width="38" height="38" rx="3.5" transform="rotate(-90 1.5 39.5)" stroke="#262728" stroke-width="3"/>
<path d="M13.5252 26.2001L20.5026 33.1765L27.477 26.2001C28.2573 25.4209 29.5231 25.4209 30.3024 26.2001C30.694 26.5918 30.8878 27.1003 30.8878 27.6128C30.8878 28.1253 30.694 28.6338 30.3024 29.0255L21.9143 37.4146C21.5406 37.7892 21.0321 38 20.5026 38C19.9741 38 19.4646 37.7892 19.0899 37.4146L10.6999 29.0255C9.92058 28.2452 9.92058 26.9804 10.6998 26.2001C11.4801 25.4209 12.7429 25.4209 13.5252 26.2001ZM19.0889 3.58545L10.6989 11.9735C9.91959 12.7538 9.91959 14.0186 10.6989 14.7989C11.4791 15.5791 12.7439 15.5791 13.5242 14.7989L20.5016 7.82345L27.477 14.7989C28.2573 15.5791 29.5231 15.5791 30.3024 14.7989C30.694 14.4072 30.8878 13.8977 30.8878 13.3862C30.8878 12.8747 30.694 12.3642 30.3024 11.9735L21.9143 3.58545C21.5396 3.2108 21.0311 3 20.5016 3C19.9741 3 19.4636 3.2108 19.0889 3.58545ZM6.8275 17.0078C6.55076 18.0828 7.20015 19.1668 8.26714 19.4405L31.743 25.4348C32.812 25.7066 33.901 25.0622 34.1747 23.9942C34.2177 23.8274 34.2377 23.6605 34.2377 23.4977C34.2377 22.6045 33.6352 21.7933 32.7341 21.5625L9.25821 15.5682C8.18822 15.2944 7.10024 15.9398 6.8275 17.0078Z" fill="#262728"/>
</g>

</svg>
