<svg id="eye" width="58" height="38" viewBox="0 0 58 38" fill="none" xmlns="http://www.w3.org/2000/svg">

<path id="pupil" d="M28.9276 10.8433C24.9509 10.8433 21.707 14.2831 21.707 18.52C21.707 22.7459 24.9401 26.1966 28.9276 26.1966C32.9043 26.1966 36.1481 22.7569 36.1481 18.52C36.1481 14.294 32.9043 10.8433 28.9276 10.8433Z" fill="#262728"/>
<path id="lid" d="M29 29C21.8403 29 16 23.175 16 16C16 8.84354 21.8209 3 29 3C36.1597 3 42 8.82502 42 16C42 23.1565 36.1597 29 29 29Z" fill="#262728"/>
<rect id="bar" x="9" width="41" height="3" fill="#D9D9D9"/>
<path id="outer" d="M28.9267 30.6519C22.5251 30.6519 17.3091 25.2138 17.3091 18.52C17.3091 11.8262 22.5251 6.38809 28.9267 6.38809C35.3282 6.38809 40.5442 11.8262 40.5442 18.52C40.5442 25.2138 35.3282 30.6519 28.9267 30.6519ZM55.4703 17.3406C48.5946 6.15878 39.3265 0 29.4009 0C19.4753 0 10.2071 6.15878 3.33139 17.3406C2.88954 18.0613 2.88954 18.9787 3.33139 19.6994C10.2071 30.8812 19.4753 37.04 29.4009 37.04C39.3265 37.04 48.5839 30.8812 55.4703 19.6994C55.9122 18.9787 55.9122 18.0613 55.4703 17.3406Z" fill="#262728"/>

</svg>
