<svg width="50" height="50" viewBox="0 0 68 68" fill="none" xmlns="http://www.w3.org/2000/svg">
<path class="triangle" d="M34.866 5.5L59.1147 47.5C59.4996 48.1667 59.0185 49 58.2487 49H9.75128C8.98149 49 8.50036 48.1667 8.88526 47.5L33.134 5.5C33.5189 4.83333 34.4811 4.83333 34.866 5.5Z" stroke="#262728" stroke-width="4"/>
<path class="i" d="M32.0682 45V23.1818H35.4205V45H32.0682ZM33.7727 19.5455C33.1193 19.5455 32.5559 19.3229 32.0824 18.8778C31.6184 18.4328 31.3864 17.8977 31.3864 17.2727C31.3864 16.6477 31.6184 16.1127 32.0824 15.6676C32.5559 15.2225 33.1193 15 33.7727 15C34.4261 15 34.9848 15.2225 35.4489 15.6676C35.9223 16.1127 36.1591 16.6477 36.1591 17.2727C36.1591 17.8977 35.9223 18.4328 35.4489 18.8778C34.9848 19.3229 34.4261 19.5455 33.7727 19.5455Z" fill="#262728"/>
</svg>
